<svg width="160" height="50" viewBox="0 0 163 51" fill="none" xmlns="http://www.w3.org/2000/svg">
<path d="M11.1531 32.3328L9.32191 42.2909H2.00941L7.60485 11.8636H14.9173L12.4418 25.3253L28.3834 12.048H36.6334L24.5575 21.6372L30.1983 37.8651C30.7914 40.078 31.5826 41.5532 32.5719 42.2909H29.5719C24.9469 42.2909 22.3944 40.8771 21.9144 38.0495L18.8686 26.063L11.1531 32.3328ZM61.0719 42.2909H53.7594L54.1664 40.078C53.1451 41.5532 51.8844 42.2909 50.3844 42.2909H39.6969C36.1743 42.4138 34.6783 40.6927 35.2089 37.1274L36.0906 32.3328C36.8261 29.0135 38.9325 27.4153 42.4098 27.5382H55.1598C55.9098 27.5382 56.4152 27.1694 56.6758 26.4318L57.3201 22.928C57.3308 22.1904 56.9611 21.8216 56.2111 21.8216H38.9611L39.3002 19.9775H59.5502C63.3002 19.9775 64.8135 21.9445 64.0901 25.8786L61.0719 42.2909ZM43.6405 31.042L42.2162 38.7871C41.8878 39.8936 42.2348 40.3853 43.2574 40.2624H51.1324C52.8824 40.2624 54.0068 39.5862 54.5055 38.2339L56.1332 29.3823H45.2582C44.2582 29.3823 43.719 29.9355 43.6405 31.042ZM73.7184 23.4813L70.9037 38.7871C70.5753 39.8936 70.9735 40.4468 72.0985 40.4468H86.3485L86.0094 42.2909H68.5719C64.8219 42.2909 63.3086 40.3238 64.0321 36.3898L65.9651 25.8786C66.6885 21.9445 68.9252 19.9775 72.6752 19.9775H89.9252L89.5861 21.8216H75.3361C74.3361 21.8216 73.7969 22.3748 73.7184 23.4813ZM99.9844 22.3748H100.172C101.193 20.8996 102.476 20.039 104.022 19.7931H114.147C118.022 19.7931 119.586 21.8216 118.84 25.8786L115.822 42.2909H108.697L112.156 23.4813C112.359 22.3748 111.961 21.8216 110.961 21.8216H103.086C101.518 22.1904 100.383 22.928 99.6792 24.0345L96.3219 42.2909H89.1969L94.8263 11.6792H101.951L99.9844 22.3748ZM144.884 42.2909H137.572L137.979 40.078C136.958 41.5532 135.697 42.2909 134.197 42.2909H123.509C119.987 42.4138 118.491 40.6927 119.021 37.1274L119.903 32.3328C120.639 29.0135 122.745 27.4153 126.222 27.5382H138.972C139.722 27.5382 140.228 27.1694 140.488 26.4318L141.133 22.928C141.143 22.1904 140.774 21.8216 140.024 21.8216H122.774L123.113 19.9775H143.363C147.113 19.9775 148.626 21.9445 147.903 25.8786L144.884 42.2909ZM127.453 31.042L126.029 38.7871C125.7 39.8936 126.047 40.3853 127.07 40.2624H134.945C136.695 40.2624 137.819 39.5862 138.318 38.2339L139.946 29.3823H129.071C128.071 29.3823 127.531 29.9355 127.453 31.042Z" fill="white"/>
<path d="M106.682 15.4924H104.948L106.817 5.77986H108.551L108.498 6.05605C108.658 5.87192 108.942 5.77986 109.348 5.77986H110.051C110.676 5.77986 110.909 6.19414 110.749 7.02269L109.35 14.2956C109.222 15.1241 108.661 15.5231 107.667 15.4924C107.104 15.4924 106.8 15.3696 106.753 15.1241L106.682 15.4924ZM112.746 16.1368H110.777L111.991 9.83058H110.397L110.476 9.4163H112.07L112.876 5.22749H114.845L114.508 6.97666H117.227L117.147 7.39094H114.429L114.039 9.4163H117.039L116.959 9.83058H113.959L113.764 10.8433H115.452C115.463 12.4083 115.734 13.4363 116.265 13.9273C114.642 14.0808 113.831 13.6665 113.832 12.6845C113.733 12.2242 113.684 11.7485 113.685 11.2575L112.746 16.1368ZM107.645 14.3876L109.089 6.8846C109.165 6.48567 109.079 6.2862 108.829 6.2862C108.641 6.2862 108.498 6.37826 108.401 6.56238L106.851 14.6178C106.891 14.894 106.99 15.0321 107.146 15.0321C107.39 15.0628 107.556 14.8479 107.645 14.3876ZM123.873 6.05605L123.758 6.65445C123.879 6.34757 124.256 6.17879 124.886 6.14811L125.081 5.13543H126.956L126.761 6.14811H128.121C129.09 6.14811 129.512 6.47032 129.388 7.11475L129.361 7.25285C129.301 7.40628 129.209 7.55972 129.085 7.71316H128.757C129.021 7.80522 129.108 8.0814 129.02 8.54171C128.906 8.97133 128.62 9.40095 128.162 9.83058C127.934 10.0454 127.635 10.1374 127.265 10.1068C127.298 10.2602 127.471 10.5824 127.783 11.0734C127.962 11.4417 128.212 11.7639 128.534 12.0401C127.237 12.2856 126.475 12.1014 126.25 11.4877H123.672C123.296 11.9787 122.351 12.1781 120.838 12.0861C121.385 11.8406 121.832 11.5491 122.178 11.2115C122.215 11.1808 122.308 11.1041 122.457 10.9813C121.914 11.0427 121.573 10.5364 121.436 9.46233H122.702C122.756 9.83058 122.863 10.1681 123.023 10.475C123.103 10.3829 123.239 10.2449 123.431 10.0607C123.505 9.99936 123.582 9.92264 123.662 9.83058C123.33 9.7692 123.128 9.5237 123.054 9.09408C122.589 9.40095 122.012 9.47767 121.322 9.32424C121.682 9.07874 122.176 8.54171 122.804 7.71316H121.82L122.139 6.05605H123.873ZM118.176 15.4463H116.863L118.732 5.73383H120.044L119.965 6.14811C120.111 5.87192 120.357 5.73383 120.701 5.73383H121.076C121.675 5.70314 121.898 6.08673 121.745 6.8846L120.328 14.2495C120.2 15.0781 119.779 15.477 119.066 15.4463C118.598 15.4463 118.324 15.3236 118.247 15.0781L118.176 15.4463ZM123.509 14.5257L123.828 12.8686H120.875L120.963 12.4083H128.323L128.234 12.8686H125.469L125.097 14.8019C124.931 15.6612 124.439 16.1061 123.621 16.1368C123.002 16.1061 122.504 15.7686 122.128 15.1241C121.866 15.6765 121.15 15.9066 119.98 15.8146C120.346 15.5384 120.812 14.7405 121.378 13.421H122.972C122.874 13.6051 122.748 13.8506 122.596 14.1575C122.431 14.5257 122.324 14.7559 122.275 14.8479C122.269 14.8786 122.245 14.9247 122.202 14.986C122.434 15.0781 122.691 15.1241 122.972 15.1241C123.259 15.0934 123.438 14.894 123.509 14.5257ZM118.998 14.3416L120.432 6.8846C120.527 6.3936 120.477 6.16345 120.284 6.19414C120.128 6.19414 119.992 6.33223 119.876 6.60842L118.309 14.7559C118.31 14.9093 118.405 14.986 118.592 14.986C118.78 14.986 118.915 14.7712 118.998 14.3416ZM125.784 13.421H127.331C127.308 14.6792 127.467 15.477 127.808 15.8146C126.478 15.9066 125.837 15.5844 125.885 14.8479C125.799 14.4797 125.766 14.004 125.784 13.421ZM125.136 7.52903H125.746C126.115 7.55972 126.335 7.71316 126.407 7.98934L126.478 7.62109H127.416C127.527 7.52903 127.598 7.40628 127.627 7.25285L127.654 7.11475C127.762 6.71582 127.519 6.51635 126.925 6.51635H124.863C124.3 6.51635 123.908 6.68513 123.687 7.02269L123.678 7.06872H124.709C124.488 7.40628 124.291 7.69781 124.119 7.94331C124.454 7.66713 124.793 7.52903 125.136 7.52903ZM126.057 11.0274C125.962 10.8739 125.862 10.6591 125.759 10.3829C125.625 10.1068 125.529 9.87661 125.47 9.69248C125.273 9.90729 124.979 10.2142 124.59 10.6131C124.435 10.7665 124.299 10.9046 124.182 11.0274H126.057ZM127.148 8.03537H126.398C126.392 8.06606 126.387 8.09675 126.381 8.12743C126.406 8.15812 126.416 8.18881 126.41 8.2195C126.546 8.64912 126.729 9.07874 126.959 9.50836C127.391 9.04805 127.649 8.6798 127.734 8.40362C127.781 8.15812 127.586 8.03537 127.148 8.03537ZM124.162 8.44965C124.184 8.66446 124.252 8.87927 124.367 9.09408C124.372 9.06339 124.394 9.03271 124.431 9.00202C124.826 8.5724 125.036 8.29621 125.059 8.17346C125.052 8.05072 124.941 7.974 124.729 7.94331C124.479 7.94331 124.192 8.05072 123.87 8.26553C123.833 8.29621 123.811 8.3269 123.805 8.35759C123.799 8.38828 123.778 8.41896 123.741 8.44965H124.162ZM137.336 5.27352L135.521 14.7098C135.326 15.7225 134.75 16.1982 133.793 16.1368C132.586 16.0754 131.823 15.4924 131.504 14.3876C131.889 14.6638 132.315 14.8019 132.784 14.8019C133.335 14.8633 133.699 14.4337 133.876 13.513L135.461 5.27352H137.336ZM132.216 8.49568H129.966L130.081 7.89728H133.784C134.714 7.77453 134.963 8.26553 134.532 9.37027C134.369 9.89195 133.368 11.4417 131.528 14.0194C131.479 14.1114 131.433 14.1882 131.39 14.2495C130.825 15.0781 129.822 15.4157 128.383 15.2622C128.723 14.9553 129.153 14.5104 129.671 13.9273C131.045 12.1475 132.109 10.5978 132.862 9.27821C133.182 8.75652 132.966 8.49568 132.216 8.49568ZM136.532 10.429H138.36C138.482 11.2575 138.67 12.1475 138.924 13.0988C139.112 14.2342 139.489 14.9553 140.055 15.2622C138.264 15.477 137.301 14.9553 137.168 13.6972C136.932 12.6538 136.719 11.5644 136.532 10.429ZM139.317 7.16079H141.004C140.259 8.11209 139.824 8.66446 139.701 8.8179C138.963 9.89195 137.905 10.2755 136.526 9.96867C136.949 9.72317 137.521 9.18614 138.243 8.35759C138.638 7.92797 138.996 7.52903 139.317 7.16079ZM146.166 5.18146H148.276C148.084 5.36558 147.945 5.51902 147.859 5.64177H149.64L149.481 6.47032C149.694 6.01001 150.117 5.76452 150.747 5.73383H152.247C153.091 5.73383 153.442 6.10208 153.301 6.83857L151.99 13.6511C151.797 14.8173 151.081 15.3696 149.843 15.3082C148.792 15.2469 148.199 14.7559 148.064 13.8353L147.621 16.1368H145.84L147.859 5.64177C147.779 5.73383 147.68 5.84123 147.563 5.96398C147.445 6.08673 147.349 6.17879 147.275 6.24017C146.78 6.70048 145.889 6.94598 144.602 6.97666L144.018 10.0147H146.924L146.826 10.521H143.92L143.327 13.6051C143.146 14.2189 143.327 14.495 143.871 14.4337C144.658 14.403 145.469 14.004 146.304 13.2369C145.662 14.4643 144.598 15.2008 143.113 15.4463C141.701 15.477 141.102 15.0167 141.316 14.0654L142.795 6.37826H144.717L144.691 6.51635C145.039 6.33223 145.53 5.88727 146.166 5.18146ZM150.253 13.421L151.51 6.8846C151.562 6.45498 151.387 6.22482 150.987 6.19414H150.378C149.94 6.19414 149.629 6.34757 149.445 6.65445L148.082 13.7432C148.329 14.0808 148.687 14.2495 149.156 14.2495C149.832 14.3109 150.197 14.0347 150.253 13.421Z" fill="white"/>
</svg>
